<?xml version="1.0" encoding="utf-8"?>
<!-- Generator: Adobe Illustrator 23.0.1, SVG Export Plug-In . SVG Version: 6.00 Build 0)  -->
<svg version="1.1" id="Layer_1" xmlns="http://www.w3.org/2000/svg" xmlns:xlink="http://www.w3.org/1999/xlink" x="0px" y="0px"
	 viewBox="0 0 363 512" style="enable-background:new 0 0 363 512;" xml:space="preserve">
<style type="text/css">
	.st0{clip-path:url(#SVGID_2_);fill:#ffffff}
</style>
<g>
	<defs>
		<path id="SVGID_1_" d="M217.4,0h55v20h-32v4h32v46h-55V49h32v-4h-32V0z M151.4,0h55v20h-32v4h32v46h-55V49h32v-4h-32V0z M85.4,0
			h55v23h-32v23h32v23h-55V0z M241.1,268.2H75.7l4.1,45.4h157.4l-5.3,58.9l-50.6,13.7l0,0l-50.6-13.7l-3.2-36.2H81.8l6.4,71.3
			l93,25.8l0.2-0.1v0l92.9-25.8l0.7-7.7l10.7-119.6l1.1-12.2l8.2-91.9H67.5l4.1,45.4h173.6L241.1,268.2z M181.1,512L33,470.9
			L0,100.6h362.7l-33,370.2L181.1,512z"/>
	</defs>
	<clipPath id="SVGID_2_">
		<use xlink:href="#SVGID_1_"  style="overflow:visible;"/>
	</clipPath>
	<rect x="-5" y="-5" class="st0" width="372.7" height="522"/>
</g>
</svg>
