<?xml version="1.0" encoding="utf-8"?>
<!-- Generator: Adobe Illustrator 23.0.1, SVG Export Plug-In . SVG Version: 6.00 Build 0)  -->
<svg version="1.1" id="Layer_1" xmlns="http://www.w3.org/2000/svg" xmlns:xlink="http://www.w3.org/1999/xlink" x="0px" y="0px"
	 viewBox="0 0 849 336" style="enable-background:new 0 0 849 336;" xml:space="preserve">
<title>404</title>
<desc>Created with Sketch.</desc>
<g id="Page-1">
	<path d="M248.4,322.1v6.9H108.1v-6.9l32.2-9.2v-69H9.2L0,230.1L172.5,2.4h43.7v220.8h48.3v20.7h-48.3v69L248.4,322.1z M140.3,223.2
		V71.4l-115,151.8H140.3z M430.1,335.9c-18.4,0-35.7-3.7-52-11c-16.3-7.4-30.4-18.2-42.3-32.4c-12-14.3-21.5-31.8-28.5-52.7
		S296.7,195,296.7,168s3.5-50.9,10.6-71.8s16.6-38.4,28.5-52.7c12-14.3,26.1-25.1,42.3-32.4s33.6-11,52-11s35.7,3.7,52,11
		c16.3,7.4,30.4,18.2,42.3,32.4c12,14.3,21.5,31.8,28.5,52.7c7.1,20.9,10.6,44.8,10.6,71.8s-3.5,50.9-10.6,71.8
		c-7.1,20.9-16.6,38.4-28.5,52.7c-12,14.3-26.1,25.1-42.3,32.4C465.8,332.2,448.5,335.9,430.1,335.9z M430.1,326.7
		c6.4,0,12.8-2.1,19.1-6.4c6.3-4.3,12-12.3,17-23.9s9.1-27.8,12.2-48.3s4.6-47.2,4.6-80s-1.5-59.5-4.6-80s-7.1-36.6-12.2-48.3
		s-10.7-19.6-17-23.9c-6.3-4.3-12.6-6.4-19.1-6.4s-12.8,2.1-19.1,6.4c-6.3,4.3-12,12.3-17,23.9s-9.1,27.8-12.2,48.3
		s-4.6,47.2-4.6,80s1.5,59.5,4.6,80s7.1,36.6,12.2,48.3s10.7,19.6,17,23.9C417.3,324.6,423.7,326.7,430.1,326.7z M832.6,322.1v6.9
		H692.3v-6.9l32.2-9.2v-69H593.4l-9.2-13.8L756.7,2.4h43.7v220.8h48.3v20.7h-48.3v69L832.6,322.1z M724.5,223.2V71.4l-115,151.8
		H724.5z"/>
</g>
</svg>
