<?xml version="1.0" encoding="utf-8"?>
<!-- Generator: Adobe Illustrator 23.0.1, SVG Export Plug-In . SVG Version: 6.00 Build 0)  -->
<svg version="1.1" id="Layer_1" xmlns="http://www.w3.org/2000/svg" xmlns:xlink="http://www.w3.org/1999/xlink" x="0px" y="0px"
	 viewBox="0 0 96 94" style="enable-background:new 0 0 96 94;" xml:space="preserve">
<style type="text/css">
	.st0{clip-path:url(#SVGID_2_);}
</style>
<g>
	<defs>
		<path id="SVGID_1_" d="M65.3,9.4l-9.7,8.3h12.9c1.4,0,2.8-0.6,3.7-1.8c0.9-1.2,1.2-2.7,0.8-4.1c-0.5-1.6-1.6-2.8-3.2-3.3
			C68.2,8,66.6,8.3,65.3,9.4z M23.1,11.8c-0.4,1.5-0.1,2.9,0.9,4.1c0.9,1.1,2.2,1.8,3.7,1.8h12.9l-9.8-8.3c-0.8-0.7-1.9-1.1-3-1.1
			c-0.5,0-1,0-1.5,0.2C24.7,9,23.5,10.2,23.1,11.8z M91.5,25.2c2.2,0,4,1.8,3.9,3.9v6.6c0,2.2-1.7,4-4,4H51.7v-14h-7.5v14H4.5
			c-2.2,0-4-1.7-4-4v-6.6c0-2.2,1.8-4,4-4h19.4c-2.5-0.7-4.8-2.2-6.4-4.3c-2.5-3.2-3.3-7.2-2.3-11.1c1.2-4.3,4.4-7.7,8.6-9
			C28-0.6,32.6,0.3,36,3.2l12,10.3L60,3.2c3.4-2.9,8-3.8,12.2-2.4c4.3,1.3,7.5,4.7,8.6,9c1,3.9,0.2,7.9-2.3,11.1
			c-1.7,2.1-3.9,3.5-6.4,4.3H91.5z M51.7,93.8V47.3h36.4v42.5c0,2.2-1.8,4-4,4H51.7z M7.8,89.8V47.3h36.4v46.5H11.8
			C9.6,93.8,7.8,92,7.8,89.8z"/>
	</defs>
	<clipPath id="SVGID_2_">
		<use xlink:href="#SVGID_1_"  style="overflow:visible;"/>
	</clipPath>
	<rect fill="#e90e47" x="-4.5" y="-4.9" class="st0" width="104.9" height="103.7"/>
</g>
</svg>
