<?xml version="1.0" encoding="utf-8"?>
<!-- Generator: Adobe Illustrator 23.0.1, SVG Export Plug-In . SVG Version: 6.00 Build 0)  -->
<svg version="1.1" id="Layer_1" xmlns="http://www.w3.org/2000/svg" xmlns:xlink="http://www.w3.org/1999/xlink" x="0px" y="0px"
	 viewBox="0 0 363 512" style="enable-background:new 0 0 363 512;" xml:space="preserve">
<style type="text/css">
	.st0{clip-path:url(#SVGID_2_);fill:#4a4a4a; fill-opacity: 0.5}
</style>
<g>
	<defs>
		<path id="SVGID_1_" d="M274.1,0h23.1v46.2h32.5V69h-55.5V0z M184.9,0h24.1l14.8,24.3L238.5,0h24.1v69h-23V34.8l-15.9,24.5h-0.4
			l-15.9-24.5V69h-22.6V0z M131.4,22.9H111V0h63.7v22.9h-20.3V69h-23.1L131.4,22.9L131.4,22.9z M33.7,0h23.1v22.8h21.1V0H101v69
			H77.9V45.9H56.8V69H33.8L33.7,0L33.7,0z M181.4,433.4l92.9-25.8l0.7-7.7l10.7-119.6l1.1-12.2H121.3l-4.2-46.5h173.8l0.9-10.2
			l2.1-23l1.1-12.2H67.5l1.1,12.2l11.2,125.1h157.4l-5.3,58.9l-50.6,13.7l0,0l-50.6-13.7l-3.2-36.2H81.8l6.4,71.3l93,25.8
			L181.4,433.4L181.4,433.4z M33,470.9L0,100.6h362.7l-33,370.2L181.1,512L33,470.9z"/>
	</defs>
	<clipPath id="SVGID_2_">
		<use xlink:href="#SVGID_1_"  style="overflow:visible;"/>
	</clipPath>
	<rect x="-5" y="-5" class="st0" width="372.7" height="522"/>
</g>
</svg>
