<svg id="Layer_1" data-name="Layer 1" xmlns="http://www.w3.org/2000/svg" viewBox="0 0 102.14 130.68"><defs><style>.color{fill:#4a4a4a; fill-opacity: 0.5}.cls-2{clip-path:url(#clip-path);}.cls-4{clip-path:url(#clip-path-2);}.cls-5{clip-path:url(#clip-path-3);}.cls-6{clip-path:url(#clip-path-4);}.cls-7{clip-path:url(#clip-path-5);}.cls-8{clip-path:url(#clip-path-6);}.cls-9{clip-path:url(#clip-path-7);}.cls-10{clip-path:url(#clip-path-8);}.cls-11{clip-path:url(#clip-path-9);}.cls-12{clip-path:url(#clip-path-10);}</style><clipPath id="clip-path" transform="translate(4.16 4.87)"><path class="cls-1 color" d="M10.7,48.6l.4-1.4c-.2,0,1.8-3.2,1.6-3.2C-2.5,58.7-1.2,78.4,6.1,92.5a54.83,54.83,0,0,0,25.5,24.1,51.3,51.3,0,0,0,21.3,4.2c17.7-.4,30-8.7,37-22.3l.4-1.1c-6.2,6.2-16.2,10.5-24.1,11.3C33.5,112.2-.2,82.8,10.7,48.6Z"/></clipPath><clipPath id="clip-path-2" transform="translate(4.16 4.87)"><path class="cls-1 color" d="M54.3,53.6c4.3,7,12.6,13.1,25.5,10.3,3.3-.7,10.6-6.2,11.9-9.2-11.1,7.5-17.9,5-21.2,4.1a16.5,16.5,0,0,1-3.9-1.9c-3.4-2.1-5.1-3-7.8-6.9a26.1,26.1,0,0,1-3.4-7.5,23.55,23.55,0,0,1,.9-12.4c-5,4.5-5.8,13.1-4.1,18.8A26.37,26.37,0,0,0,54.3,53.6Z"/></clipPath><clipPath id="clip-path-3" transform="translate(4.16 4.87)"><path class="cls-1" d="M57.8,90.4c17.3,2.3,30.2-5,34.7-16.3a31.21,31.21,0,0,1-22,9.2c-18.4-.1-39.2-16.6-36.8-39.7a25.92,25.92,0,0,1,3.1-9.1C30.7,42.3,27,48.6,28,59.3,29.5,73.9,43.3,88.5,57.8,90.4Z"/></clipPath><clipPath id="clip-path-4" transform="translate(4.16 4.87)"><path class="cls-1" d="M88.57,1.9,82.2,10.63l-.57-2.28H77.46s.41,2.08.72,3.15A13,13,0,0,1,79,14.64a17,17,0,0,1-.61,3.45l4.07,0a24.22,24.22,0,0,1,.85-3.15,6.36,6.36,0,0,1,.71-1L93,1.92Z"/></clipPath><clipPath id="clip-path-5" transform="translate(4.16 4.87)"><path class="cls-1" d="M80.17,4.24c-.9-.53-3-.31-4.84-.31H72.52c-1.77,0-2.8-.12-3,.57C69,6.57,66.65,18.07,66.65,18.07h3.74L72.83,7.5h2c2.34,0,6.63-.06,6.63-.06S81,4.72,80.17,4.24Z"/></clipPath><clipPath id="clip-path-6" transform="translate(4.16 4.87)"><path class="cls-1" d="M62.72,9.38l-5.57,0s-.06-2.4,3.19-2.3c1.16,0,1.57.18,2,.87A2.23,2.23,0,0,1,62.72,9.38Zm3.11-4a5,5,0,0,0-3.45-1.57,9.67,9.67,0,0,0-6.49,1.43,6.68,6.68,0,0,0-1,.87c-.1.12-.22.26-.3.38s-.19.21-.27.33a8.35,8.35,0,0,0-.38.82c-.13.25-.23.53-.33.75-.77,1.94-1.59,5.55-.85,7.42a4,4,0,0,0,.42.75,4.24,4.24,0,0,0,.31.4,3.11,3.11,0,0,0,1.59.85c3.11.74,9.35.42,9.35.42l.77-3.37a53.42,53.42,0,0,1-6.53-.06A3.15,3.15,0,0,1,57,14.3c-.39-.34-.86-1.15-.51-1.67s1.2-.27,2-.29c2.6-.08,7.34,0,7.34,0s.92-4,.43-5.7A5.8,5.8,0,0,0,65.83,5.36Z"/></clipPath><clipPath id="clip-path-7" transform="translate(4.16 4.87)"><path class="cls-1" d="M49.08,3.91,46.47,14.62H44.6c-1.38,0-1.83-.08-2.15-.7s0-1.54.14-2.42C43,9,44.09,3.91,44.09,3.91l-3.76,0s-.71,3.25-1,4.84c-.49,2.24-1.51,5.57-.43,7.57s3.7,1.71,6.63,1.71h4.17c1-4.64,3.05-14.16,3.05-14.16Z"/></clipPath><clipPath id="clip-path-8" transform="translate(4.16 4.87)"><path class="cls-1" d="M32.08,10.77c-.37,1.27-.72,2.56-1.16,3.71-2.91,0-5.61.38-6.49-1.43a6.24,6.24,0,0,1,0-3.71A8,8,0,0,1,26.16,5.2a4.84,4.84,0,0,1,4.9-1.15,3.47,3.47,0,0,1,1.87,2.73A13.12,13.12,0,0,1,32.08,10.77Zm5-5.28A6.25,6.25,0,0,0,34.7,1.43a2.77,2.77,0,0,0-.31-.22,9.4,9.4,0,0,0-3.17-1c-4.9-.5-7.83,1.66-9.51,4.58a14.53,14.53,0,0,0-1.45,3.71,13.12,13.12,0,0,0-.43,4.86,6.3,6.3,0,0,0,1.45,3.15c1.91,2,5.65,1.71,9.66,1.71,1.22,0,4.17,0,5,0,.29,0,1.12-3.33,1-3.43s-1.06,0-2.18-.06C35.94,11.78,37.55,8.47,37.12,5.49Z"/></clipPath><clipPath id="clip-path-9" transform="translate(4.16 4.87)"><path class="cls-1" d="M14.65,7.34h4c.26-1.09.48-2.32.73-3.41l-3.91,0C15.2,5,15,6.15,14.65,7.34Z"/></clipPath><clipPath id="clip-path-10" transform="translate(4.16 4.87)"><path class="cls-1" d="M12.92,14.92c-.59,2.79-.67,5.65-3.74,5.29-.29,1.07-.67,2.5-1,3.71a33.19,33.19,0,0,0,3.44,0,5.37,5.37,0,0,0,2-.57c.1-.1.17,0,.29-.14,1.34-1,1.66-2.46,2.15-4.43.8-3.13,1.79-7.65,2.3-10.43H14.51C14.3,9,13.27,13.31,12.92,14.92Z"/></clipPath></defs><title>jq</title><g class="cls-2 color"><rect class="cls-3" y="43.87" width="99.46" height="86.81"/></g><g class="cls-4 color"><rect class="cls-3" x="50.55" y="29.97" width="50.31" height="44.5"/></g><g class="cls-5 color"><rect class="cls-3 color" x="26.99" y="34.37" width="74.66" height="66.32"/></g><g class="cls-6 color"><rect x="76.62" y="1.77" width="25.52" height="26.19"/></g><g class="cls-7 color"><rect x="65.8" y="3.76" width="24.82" height="24.18"/></g><g class="cls-8 color"><rect x="51.61" y="3.6" width="23.97" height="24.55"/></g><g class="cls-9 color"><rect x="37.53" y="3.76" width="24.33" height="24.18"/></g><g class="cls-10 color"><rect x="18.91" width="27.44" height="28.09"/></g><g class="cls-11 color"><rect class="color" x="13.81" y="3.78" width="14.76" height="13.43"/></g><g class="cls-12"><rect class="color" x="7.34" y="8.24" width="20.19" height="25.61"/></g></svg>