<?xml version="1.0" encoding="utf-8"?>
<!-- Generator: Adobe Illustrator 23.0.1, SVG Export Plug-In . SVG Version: 6.00 Build 0)  -->
<svg version="1.1" id="Layer_1" xmlns="http://www.w3.org/2000/svg" xmlns:xlink="http://www.w3.org/1999/xlink" x="0px" y="0px"
	 viewBox="0 0 81 113" style="enable-background:new 0 0 81 113;" xml:space="preserve">
<style type="text/css">
	.st0{clip-path:url(#SVGID_2_);fill:#ffffff}
</style>
<g>
	<defs>
		<path id="SVGID_1_" d="M55.3,0.1v5.4h-5l5,4.9v4.9H42.8v-4.9c0,0,3.6,0,5,0c-2.5-2.4-3.3-3.2-5-4.9c0-2.7,0-5.4,0-5.4H55.3z
			 M32.4,10.1V0h5.2v15.3h-1.3h-3.9h-7.1v-5.2H32.4z M61.4,38.9H20.6l-2.8,30.7v-0.2h34.6l-1.1,13l-11,3.1l-11.2-3.2l-0.7-7.8H18.2
			l1.5,15.6L40.3,96l20.6-5.9l2.8-30.7H27l0.4-10.3h25.5l0.4,5.9h10.3L61.4,38.9z M80.5,22.2L73,104.1l-32.7,9.3l-32.8-9.3L0,22.2
			h40.3H80.5z"/>
	</defs>
	<clipPath id="SVGID_2_">
		<use xlink:href="#SVGID_1_"  style="overflow:visible;"/>
	</clipPath>
	<rect x="-5" y="-5" class="st0" width="90.5" height="123.4"/>
</g>
</svg>
