<?xml version="1.0" encoding="utf-8"?>
<!-- Generator: Adobe Illustrator 23.0.1, SVG Export Plug-In . SVG Version: 6.00 Build 0)  -->
<svg version="1.1" id="Layer_1" xmlns="http://www.w3.org/2000/svg" xmlns:xlink="http://www.w3.org/1999/xlink" x="0px" y="0px"
	 viewBox="0 0 363 512" style="enable-background:new 0 0 363 512;" xml:space="preserve">
<style type="text/css">
	.st0{clip-path:url(#SVGID_2_);fill:#4a4a4a; fill-opacity: 0.5}
</style>
<g>
	<defs>
		<path id="SVGID_1_" d="M151,0h23.1v22.8h21.1V0h23.1v69h-23.1V45.9h-21.1V69H151L151,0L151,0z M251.4,21v4h16v-4H251.4z M108.4,21
			v4h16v-4H108.4z M229,0h55v44.7h-32V69h-23V0z M85.4,0h55v44.7h-32V69h-23V0z M181.1,512L33,470.9L0,100.6h362.7l-33,370.2
			L181.1,512z M184.9,327l-53.3,93h53.7l51.4-93h46.7l3.9-46h-25.2l32.7-59.3v-45.4H67.5l4.1,45.4h173.6L211.3,281h-65.9l4.2,46
			H184.9z"/>
	</defs>
	<clipPath id="SVGID_2_">
		<use xlink:href="#SVGID_1_"  style="overflow:visible;"/>
	</clipPath>
	<rect x="-5" y="-5" class="st0" width="372.7" height="522"/>
</g>
</svg>
