<svg xmlns="http://www.w3.org/2000/svg" width="321.19" height="308.188" viewBox="0 0 321.19 308.188">
  <defs>
    <style>
      .cls-1 {
        fill: #199bdb;
        fill-rule: evenodd;
      }
    </style>
  </defs>
  <path class="cls-1" d="M1455.54,11.238S1405.02,43.8,1387.06,55.3c-11.1,7.114-22.9.946-18.63-14.946,3.29-12.191,4.86-16-4.74-29.662-11-15.645-30.58-11.476-44.03-3.495-14.07,8.356-25.26,24.827-22.01,41.087,2.12,10.668,7.38,19.623,18.44,20.867,6.03,0.684,18.07-.117,12.4,14.421-3.06,7.85-63.35,35.484-63.35,35.484s25.71,50.647,35.55,63.622c5.64,7.46,17.75,5.476,19.27-7,2.36-19.233,35.19-26.546,51.71-1.012,17.35,26.786-9.65,48.064-22.12,40.914-11.65-6.687-29.84.493-23.19,13.765,10.36,20.658,56.25,78.92,56.25,78.92s42.69-12.828,58.06-25.356c7.13-5.833,2.93-21.527-8.03-23.7-10.08-1.992-29.49-32.562,7.59-49.2,29.01-13.017,38.18,13.576,33.72,21.979-4.3,8.068,3.52,20.952,19.59,16.611,21.99-5.928,72.62-51.93,72.62-51.93s-34.6-42.557-40.78-59.257c-6.62-17.878,17.68-18.829,21.8-17.065,26.65,11.42,51.62-17.68,32.22-51.491-28.26-49.24-68.14-15.038-65.56-.777,2.83,15.711-14.47,21.263-20.73,14.227C1478.45,65.881,1455.54,11.238,1455.54,11.238Z" transform="translate(-1265.12 -0.063)"/>
</svg>
