<svg width="466" height="592" version="1.1" id="Layer_1" xmlns="http://www.w3.org/2000/svg" xmlns:xlink="http://www.w3.org/1999/xlink" x="0px" y="0px"
	 viewBox="0 0 465.8 591.4" style="enable-background:new 0 0 465.8 591.4;" xml:space="preserve">
<style type="text/css">
	.st0{fill-rule:evenodd;clip-rule:evenodd;fill:#4B2D83;}
</style>
<path class="st0" d="M458.5,103.4c0,0-61.3,12.8-95,7.3c-15.7-2.6-22.8-29.8-8.3-42.6c13.3-11.8,16.1-74.7-53.4-67.5
	c-54.5,5.7-45.4,53.7-31.5,62.4c13.3,8.4,12.7,34.6-15,42.1c-37.9,10.2-152.9-15-152.9-15S115,152,109.6,186
	c-2.5,15.8-29.5,23-42.2,8.4c-11.7-13.5-74-16.3-66.8,54c5.6,55,53.1,45.8,61.8,31.8c8.3-13.5,34.3-12.8,41.6,15.1
	c10.1,38.3,1.7,191.8,1.7,191.8s89.7-13.8,129.4-11.6c25.5,1.5,20.5,35.1,0.5,46.9c-21.4,12.6-12.9,71.7,41.9,68.7
	c52.3-2.8,69.7-58.7,43-78.8c-17.3-13.1-9.8-33,6.2-35.1c27.8-3.6,125.4,1.5,125.4,1.5s15.2-94.2,10.1-124.7
	c-5.4-32.7-42.5-13-47.2-6.7c-30,40.4-92.2,18.3-92.2-49.5c0-98.7,88.8-82,97.2-58.2c9.2,26.1,39.8,19.4,43.1,3.4
	C471.1,205.6,458.5,103.4,458.5,103.4z"/>
</svg>
