<svg xmlns="http://www.w3.org/2000/svg" width="580.56" height="454.75" viewBox="0 0 580.56 454.75">
  <defs>
    <style>
      .cls-1 {
        fill: #e90e47;
        fill-rule: evenodd;
      }
    </style>
  </defs>
  <path class="cls-1" d="M1206.43,563.41s38.23-84.626,41.07-114.591c3.05-32.123-37.3-23.066-43.31-18.375-38.8,30.283-92.62-6.362-75.53-70.065,24.88-92.784,105.42-54.321,107.44-29.882,2.23,26.888,33.09,28.413,40.32,14.184,16.89-33.234,30.62-132.492,30.62-132.492s94.47,20.2,120.09,30.691c14.75,6.032,16.86,26.7-2.94,34.59-30.53,12.158-28,69.069,21.21,85.09,51.64,16.8,74.61-36.578,57.36-53.894-16.12-16.176-12.41-49.071,12.32-43.911,38.47,8.027,120.63,43.935,120.63,43.935s-31.06,96.766-41.98,131.135c-6.75,21.236,8.59,37.879,32.76,24.012,18.57-10.639,24.11-14.866,50.79-5.043,30.53,11.24,32.34,45.079,25.2,70.548-7.49,26.656-29.55,52.084-57.67,53.812-18.45,1.134-35.47-3.6-42.41-21.186-3.79-9.582-7.79-29.628-29.14-14.062-11.52,8.393-30.21,119.033-30.21,119.033s-61.75-3.646-92.5-17.424c-14.28-6.4-14.25-33.864,2.81-42.2,15.69-7.661,34.22-66.1-34.03-77.09-53.42-8.584-56.84,38.858-45.81,50.633,10.59,11.316,3.39,35.771-24.92,35.709C1309.82,616.466,1206.43,563.41,1206.43,563.41Z" transform="translate(-1125.41 -212.188)"/>
</svg>
