<?xml version="1.0" encoding="utf-8"?>
<!-- Generator: Adobe Illustrator 23.0.1, SVG Export Plug-In . SVG Version: 6.00 Build 0)  -->
<svg version="1.1" id="Layer_1" xmlns="http://www.w3.org/2000/svg" xmlns:xlink="http://www.w3.org/1999/xlink" x="0px" y="0px"
	 viewBox="0 0 82 82" style="enable-background:new 0 0 82 82;" xml:space="preserve">
<title>4</title>
<g>
	<defs>
		<path id="SVGID_1_" d="M1,29.1v49.4C1,80.4,2.6,82,4.5,82h75c1.9,0,3.5-1.6,3.5-3.5V29.1H1z"/>
	</defs>
	<use xlink:href="#SVGID_1_"  style="overflow:visible;fill:#4B3081;"/>
	<clipPath id="SVGID_2_">
		<use xlink:href="#SVGID_1_"  style="overflow:visible;"/>
	</clipPath>
</g>
<g>
	<defs>
		<path id="SVGID_3_" d="M34.4,14.5c-1.9,0-3.4-1.5-3.5-3.3c0-1.9,1.6-3.5,3.5-3.5s3.5,1.6,3.5,3.5c0,1.8-1.5,3.3-3.4,3.3
			C34.5,14.5,34.5,14.5,34.4,14.5z M15.3,14.5c-1.9,0-3.4-1.5-3.5-3.3c0-1.9,1.6-3.5,3.5-3.5s3.5,1.6,3.5,3.5
			C18.7,13,17.1,14.5,15.3,14.5z M79.3,0H4.5C2.6,0,1,1.6,1,3.5v18.8h81.8V3.5C82.8,1.6,81.3,0,79.3,0z"/>
	</defs>
	<use xlink:href="#SVGID_3_"  style="overflow:visible;fill:#FED631;"/>
	<clipPath id="SVGID_4_">
		<use xlink:href="#SVGID_3_"  style="overflow:visible;"/>
	</clipPath>
</g>
</svg>
