<?xml version="1.0" encoding="utf-8"?>
<!-- Generator: Adobe Illustrator 23.0.1, SVG Export Plug-In . SVG Version: 6.00 Build 0)  -->
<svg version="1.1" id="Layer_1" xmlns="http://www.w3.org/2000/svg" xmlns:xlink="http://www.w3.org/1999/xlink" x="0px" y="0px"
	 viewBox="0 0 73.5 82" style="enable-background:new 0 0 73.5 82;" xml:space="preserve">
<title>3</title>
<g>
	<defs>
		<path id="SVGID_1_" d="M70,18.2L39.9,0.9c-1.9-1.1-4.3-1.1-6.3,0L3.6,18.2c-1.9,1.1-3.1,3.2-3.1,5.4v34.8c0,2.2,1.2,4.3,3.1,5.4
			l30.1,17.4c1,0.5,2,0.8,3.1,0.9c1.1,0,2.2-0.3,3.1-0.9L70,63.8c1.9-1.1,3.1-3.2,3.1-5.4V23.6C73.2,21.4,72,19.3,70,18.2z"/>
	</defs>
	<use xlink:href="#SVGID_1_"  style="overflow:visible;fill:#269CD8;"/>
	<clipPath id="SVGID_2_">
		<use xlink:href="#SVGID_1_"  style="overflow:visible;"/>
	</clipPath>
</g>
<g>
	<defs>
		<path id="SVGID_3_" d="M38,51.8v7h20v-7H38z M15,29.1l12.3,12.2L15,53.5l5.3,5.3L38,41.3L20.3,23.8L15,29.1z"/>
	</defs>
	<use xlink:href="#SVGID_3_"  style="overflow:visible;fill:#4B3081;"/>
	<clipPath id="SVGID_4_">
		<use xlink:href="#SVGID_3_"  style="overflow:visible;"/>
	</clipPath>
</g>
</svg>
